<svg width="56" height="35" viewBox="0 0 56 35" fill="none" xmlns="http://www.w3.org/2000/svg">
<path d="M18.5632 24.1949C21.1102 26.3386 24.3335 27.5119 27.6625 27.5074C30.9532 27.5332 34.1399 26.3551 36.6225 24.1949L27.6625 2.99744L27.6459 2.95801L18.5632 24.1949Z" fill="#F0E55B"/>
<path d="M0.0300293 0.00390625L12.2489 28.3634L16.1393 18.9595L8.11186 0.00390625H0.0300293Z" fill="white"/>
<path d="M23.9802 0H31.3014L39.1411 18.9696L43.0186 28.3616L40.7861 33.5356H37.4474L27.5754 10.4526L23.9802 0Z" fill="#CE6161"/>
<path d="M55.2371 0.00195312L43.0184 28.3608L39.1281 18.9572L47.1545 0.00195312H55.2371Z" fill="white"/>
<path d="M31.2859 0H23.9648L16.1252 18.9696L12.2477 28.3616L14.48 33.5356H17.8187L27.6909 10.4528L31.2859 0.000198567V0Z" fill="#48A0D7"/>
</svg>
