<svg xmlns="http://www.w3.org/2000/svg" xmlns:xlink="http://www.w3.org/1999/xlink" width="420" height="420" viewBox="0 0 420 420">
  <defs>
    <linearGradient id="linear-gradient" x1="0.5" x2="0.5" y2="1" gradientUnits="objectBoundingBox">
      <stop offset="0" stop-color="#1a2f4e"/>
      <stop offset="0.1" stop-color="#202e4b"/>
      <stop offset="0.2" stop-color="#262c47"/>
      <stop offset="0.3" stop-color="#2c2b44"/>
      <stop offset="0.4" stop-color="#312a41"/>
      <stop offset="0.5" stop-color="#36293d"/>
      <stop offset="0.6" stop-color="#3b273a"/>
      <stop offset="0.7" stop-color="#3f2637"/>
      <stop offset="0.8" stop-color="#432533"/>
      <stop offset="0.9" stop-color="#462330"/>
      <stop offset="1" stop-color="#49222d"/>
    </linearGradient>
    <clipPath id="clip-path">
      <path id="mask" d="M67.944-17.347a71.514,71.514,0,0,0,46.149,16.8h0a68.409,68.409,0,0,0,45.443-16.8L114.093-124.855l-.084-.2Z" transform="translate(-67.944 125.059)" fill="none"/>
    </clipPath>
    <radialGradient id="radial-gradient" cx="43.047" cy="14.328" r="71.83" gradientUnits="userSpaceOnUse">
      <stop offset="0" stop-color="#f0e55b"/>
      <stop offset="0.1" stop-color="#f1e661"/>
      <stop offset="0.2" stop-color="#f2e76b"/>
      <stop offset="0.3" stop-color="#f3e977"/>
      <stop offset="0.4" stop-color="#f4eb86"/>
      <stop offset="0.5" stop-color="#f5ee96"/>
      <stop offset="0.6" stop-color="#f7f0a9"/>
      <stop offset="0.7" stop-color="#f9f3bc"/>
      <stop offset="0.8" stop-color="#fbf7d1"/>
      <stop offset="0.9" stop-color="#fdfae7"/>
      <stop offset="1" stop-color="#fff"/>
    </radialGradient>
  </defs>
  <g id="pwdo_logo_CLEAN" data-name="pwdo logo CLEAN" transform="translate(-1252 -399)">
    <rect id="Rectangle_16" data-name="Rectangle 16" width="420" height="420" transform="translate(1252 399)" fill="none"/>
    <g id="Group_64" data-name="Group 64">
      <g id="icon_cleaned_up_symmetrical" data-name="icon cleaned up symmetrical" transform="translate(918.12 -137.146)">
        <path id="left" d="M2.192-162.057,64.163-18.225,83.894-65.919,43.181-162.057Z" transform="translate(401.688 768.212)" fill="url(#linear-gradient)"/>
        <path id="red_flipped_from_blue" data-name="red flipped from blue" d="M45.508-162.057H82.639L122.4-65.848l19.666,47.634L130.743,8.027H113.81L63.742-109.044,45.508-162.057Z" transform="translate(479.845 768.202)" fill="#ce6161"/>
        <path id="right_flipped_from_left" data-name="right flipped from left" d="M83.893-162.057,21.923-18.228,2.192-65.921,42.9-162.057Z" transform="translate(599.987 768.212)" fill="url(#linear-gradient)"/>
        <path id="blue" d="M142.065-162.057H104.934L65.174-65.848,45.508-18.214,56.83,8.027H73.763l50.069-117.07,18.233-53.013Z" transform="translate(420.341 768.202)" fill="#48a0d7"/>
        <g id="glow" transform="translate(498.053 659.028)" clip-path="url(#clip-path)">
          <path id="gradient" d="M-100.277-111.773H185.58V174.084H-100.277Z" transform="translate(3.166 4.661)" fill="url(#radial-gradient)"/>
        </g>
      </g>
      <path id="Path_45" data-name="Path 45" d="M-137.02-46.02h13.26a24.533,24.533,0,0,1,5.037.552,14.635,14.635,0,0,1,4.81,1.918,10.768,10.768,0,0,1,3.575,3.737,11.562,11.562,0,0,1,1.4,5.947,11.935,11.935,0,0,1-1.137,5.4,10.558,10.558,0,0,1-3.055,3.737,13.177,13.177,0,0,1-4.42,2.177,18.954,18.954,0,0,1-5.232.715h-9.945V0h-4.29Zm4.29,20.28h9.75a15.22,15.22,0,0,0,3.575-.423,9.24,9.24,0,0,0,3.12-1.365,7.077,7.077,0,0,0,2.21-2.5,7.965,7.965,0,0,0,.845-3.835,7.579,7.579,0,0,0-.878-3.77,7.881,7.881,0,0,0-2.275-2.568,9.3,9.3,0,0,0-3.217-1.462,14.958,14.958,0,0,0-3.64-.455h-9.49Zm31.915-23.4h3.9v24.375h.13a10.523,10.523,0,0,1,3.9-4.257,11.364,11.364,0,0,1,6.37-1.788,12.807,12.807,0,0,1,5.72,1.105,9.206,9.206,0,0,1,3.478,2.892,10.88,10.88,0,0,1,1.755,4.127,23.522,23.522,0,0,1,.488,4.81V0h-3.9V-17.68a19.067,19.067,0,0,0-.325-3.542,9.383,9.383,0,0,0-1.137-3.088,5.948,5.948,0,0,0-2.275-2.177,7.794,7.794,0,0,0-3.8-.812,11.085,11.085,0,0,0-4.062.747,8.74,8.74,0,0,0-3.315,2.275,11.021,11.021,0,0,0-2.21,3.835,16.354,16.354,0,0,0-.812,5.428V0h-3.9Zm36.79,19.11h3.9V0h-3.9ZM-65-41.925A2.827,2.827,0,0,1-64.155-44a2.827,2.827,0,0,1,2.08-.845,2.827,2.827,0,0,1,2.08.845,2.827,2.827,0,0,1,.845,2.08,2.827,2.827,0,0,1-.845,2.08,2.827,2.827,0,0,1-2.08.845,2.827,2.827,0,0,1-2.08-.845A2.827,2.827,0,0,1-65-41.925Zm16.575-7.215h3.9V0h-3.9ZM-32.76-30.03h3.9V0h-3.9Zm-.975-11.895A2.827,2.827,0,0,1-32.89-44a2.827,2.827,0,0,1,2.08-.845A2.827,2.827,0,0,1-28.73-44a2.827,2.827,0,0,1,.845,2.08,2.827,2.827,0,0,1-.845,2.08A2.827,2.827,0,0,1-30.81-39a2.827,2.827,0,0,1-2.08-.845A2.827,2.827,0,0,1-33.735-41.925Zm15.08,11.895h3.9v5.265h.13a10.116,10.116,0,0,1,2.275-2.7,13.688,13.688,0,0,1,2.958-1.885,14.8,14.8,0,0,1,3.347-1.1A17.232,17.232,0,0,1-2.6-30.81a16.747,16.747,0,0,1,6.338,1.17,14.882,14.882,0,0,1,5,3.282,14.882,14.882,0,0,1,3.282,5,16.747,16.747,0,0,1,1.17,6.338,16.747,16.747,0,0,1-1.17,6.338,14.882,14.882,0,0,1-3.282,5,14.882,14.882,0,0,1-5,3.282A16.747,16.747,0,0,1-2.6.78,17.232,17.232,0,0,1-6.045.423,14.8,14.8,0,0,1-9.392-.683,13.688,13.688,0,0,1-12.35-2.568a10.116,10.116,0,0,1-2.275-2.7h-.13V14.82h-3.9Zm3.51,15.015a11.851,11.851,0,0,0,.975,4.778,12.235,12.235,0,0,0,2.665,3.9A12.8,12.8,0,0,0-7.54-3.7,12.408,12.408,0,0,0-2.6-2.73,12.111,12.111,0,0,0,2.34-3.7,11.46,11.46,0,0,0,6.11-6.337a11.169,11.169,0,0,0,2.372-3.9A13.917,13.917,0,0,0,9.3-15.015a13.917,13.917,0,0,0-.812-4.778,11.169,11.169,0,0,0-2.372-3.9,11.46,11.46,0,0,0-3.77-2.633A12.111,12.111,0,0,0-2.6-27.3a12.408,12.408,0,0,0-4.94.975A12.8,12.8,0,0,0-11.5-23.692a12.235,12.235,0,0,0-2.665,3.9A11.851,11.851,0,0,0-15.145-15.015ZM21.06-30.03h3.9v5.265h.13a10.116,10.116,0,0,1,2.275-2.7,13.688,13.688,0,0,1,2.958-1.885,14.8,14.8,0,0,1,3.347-1.1,17.232,17.232,0,0,1,3.445-.358,16.747,16.747,0,0,1,6.338,1.17,14.882,14.882,0,0,1,5.005,3.282,14.882,14.882,0,0,1,3.282,5,16.747,16.747,0,0,1,1.17,6.338,16.747,16.747,0,0,1-1.17,6.338,14.882,14.882,0,0,1-3.282,5A14.882,14.882,0,0,1,43.453-.39,16.747,16.747,0,0,1,37.115.78,17.232,17.232,0,0,1,33.67.423,14.8,14.8,0,0,1,30.323-.683a13.688,13.688,0,0,1-2.958-1.885,10.116,10.116,0,0,1-2.275-2.7h-.13V14.82h-3.9Zm3.51,15.015a11.852,11.852,0,0,0,.975,4.778,12.235,12.235,0,0,0,2.665,3.9A12.8,12.8,0,0,0,32.175-3.7a12.408,12.408,0,0,0,4.94.975,12.111,12.111,0,0,0,4.94-.975,11.46,11.46,0,0,0,3.77-2.632,11.17,11.17,0,0,0,2.372-3.9,13.917,13.917,0,0,0,.813-4.778,13.917,13.917,0,0,0-.812-4.778,11.17,11.17,0,0,0-2.372-3.9,11.46,11.46,0,0,0-3.77-2.633,12.111,12.111,0,0,0-4.94-.975,12.408,12.408,0,0,0-4.94.975,12.8,12.8,0,0,0-3.965,2.633,12.235,12.235,0,0,0-2.665,3.9A11.852,11.852,0,0,0,24.57-15.015ZM61.62-30.03h3.9V0h-3.9Zm-.975-11.895A2.827,2.827,0,0,1,61.49-44a2.827,2.827,0,0,1,2.08-.845A2.827,2.827,0,0,1,65.65-44a2.827,2.827,0,0,1,.845,2.08,2.827,2.827,0,0,1-.845,2.08A2.827,2.827,0,0,1,63.57-39a2.827,2.827,0,0,1-2.08-.845A2.827,2.827,0,0,1,60.645-41.925ZM76.57-21.58q0-.845-.065-2.048t-.1-2.437q-.033-1.235-.1-2.308t-.065-1.657h3.9q.065,1.69.1,3.25a10.208,10.208,0,0,0,.163,2.015H80.6a10.523,10.523,0,0,1,3.9-4.257,11.364,11.364,0,0,1,6.37-1.788A12.807,12.807,0,0,1,96.59-29.7a9.206,9.206,0,0,1,3.478,2.892,10.88,10.88,0,0,1,1.755,4.127,23.522,23.522,0,0,1,.488,4.81V0h-3.9V-17.68a19.067,19.067,0,0,0-.325-3.542,9.383,9.383,0,0,0-1.137-3.088,5.948,5.948,0,0,0-2.275-2.177,7.794,7.794,0,0,0-3.8-.812,11.085,11.085,0,0,0-4.062.747,8.74,8.74,0,0,0-3.315,2.275,11.021,11.021,0,0,0-2.21,3.835,16.354,16.354,0,0,0-.812,5.428V0h-3.9ZM138.9-5.655a13.149,13.149,0,0,1-5.622,4.94A17.888,17.888,0,0,1,125.9.78a16.013,16.013,0,0,1-6.24-1.17,14.07,14.07,0,0,1-4.81-3.282,14.419,14.419,0,0,1-3.088-5,18.294,18.294,0,0,1-1.072-6.4,17.171,17.171,0,0,1,1.1-6.24,14.894,14.894,0,0,1,3.12-4.972,14.642,14.642,0,0,1,4.745-3.315,14.835,14.835,0,0,1,6.045-1.2,14.488,14.488,0,0,1,6.078,1.2,13.305,13.305,0,0,1,4.42,3.185,13.482,13.482,0,0,1,2.7,4.517,15.1,15.1,0,0,1,.91,5.135v2.73H114.6a13.342,13.342,0,0,0,.487,3.153A11.159,11.159,0,0,0,116.87-7.15a11.326,11.326,0,0,0,3.478,3.12,10.853,10.853,0,0,0,5.623,1.3,12.551,12.551,0,0,0,5.785-1.43,10.424,10.424,0,0,0,4.29-3.9Zm-2.99-11.9a8.864,8.864,0,0,0-.812-3.77,10.08,10.08,0,0,0-2.21-3.087,10.455,10.455,0,0,0-3.315-2.113,10.678,10.678,0,0,0-4.063-.78,9.947,9.947,0,0,0-5.3,1.3,11.594,11.594,0,0,0-3.348,2.99,11.886,11.886,0,0,0-1.755,3.283,8.7,8.7,0,0,0-.52,2.177ZM-140.179,18.972h3.813l6.6,24.108h.082l7.134-24.108h3.854L-111.6,43.08h.082l6.724-24.108h3.608L-109.716,48h-3.731l-7.175-24.6h-.082L-127.92,48h-3.772ZM-82.7,44.515a9.736,9.736,0,0,1-3.772,3.1,11.955,11.955,0,0,1-4.756.882,9.915,9.915,0,0,1-4.059-.8,9.146,9.146,0,0,1-3.054-2.153,9.439,9.439,0,0,1-1.927-3.2,11.343,11.343,0,0,1-.676-3.936,10.994,10.994,0,0,1,.738-4.079,9.452,9.452,0,0,1,2.05-3.2,9.214,9.214,0,0,1,3.116-2.071A10.3,10.3,0,0,1-91.1,28.32a9.8,9.8,0,0,1,3.69.677,8,8,0,0,1,2.891,1.968,8.837,8.837,0,0,1,1.865,3.157A12.75,12.75,0,0,1-82,38.365V39.39H-97.5a6.735,6.735,0,0,0,.594,2.358,6.847,6.847,0,0,0,1.333,1.968,6.156,6.156,0,0,0,1.927,1.333,5.889,5.889,0,0,0,2.419.492A7.647,7.647,0,0,0-87.7,44.8a8.014,8.014,0,0,0,2.583-2.173Zm-2.747-7.831a5.512,5.512,0,0,0-1.6-3.936,5.743,5.743,0,0,0-4.182-1.476,6.191,6.191,0,0,0-4.305,1.476A6.2,6.2,0,0,0-97.5,36.684ZM-77.2,17H-74V31.6h.082a9.429,9.429,0,0,1,3.054-2.419,8.534,8.534,0,0,1,3.834-.861,10.843,10.843,0,0,1,4.12.759,9.177,9.177,0,0,1,3.177,2.111,9.728,9.728,0,0,1,2.05,3.2,10.721,10.721,0,0,1,.738,4.018,10.721,10.721,0,0,1-.738,4.018,9.9,9.9,0,0,1-2.03,3.2,9.2,9.2,0,0,1-3.054,2.111,9.442,9.442,0,0,1-3.772.758,8.88,8.88,0,0,1-4.531-1.128A7.318,7.318,0,0,1-73.923,44.6H-74V48h-3.2Zm3.2,21.4a8.13,8.13,0,0,0,.471,2.809A6.542,6.542,0,0,0-72.16,43.47a6.537,6.537,0,0,0,2.152,1.517,6.868,6.868,0,0,0,2.809.554,6.868,6.868,0,0,0,2.809-.554,6.537,6.537,0,0,0,2.152-1.517,6.542,6.542,0,0,0,1.374-2.255,8.13,8.13,0,0,0,.472-2.809,8.13,8.13,0,0,0-.472-2.808,6.542,6.542,0,0,0-1.374-2.255,6.537,6.537,0,0,0-2.152-1.517,6.868,6.868,0,0,0-2.809-.554,6.868,6.868,0,0,0-2.809.554,6.537,6.537,0,0,0-2.152,1.517A6.542,6.542,0,0,0-73.534,35.6,8.13,8.13,0,0,0-74,38.406Zm33.456-19.434H-29.4a15.118,15.118,0,0,1,3.034.328,14.908,14.908,0,0,1,3.177,1.045,14.761,14.761,0,0,1,3.034,1.865,12.417,12.417,0,0,1,2.563,2.767,13.842,13.842,0,0,1,1.763,3.731,16.081,16.081,0,0,1,.656,4.777,16.081,16.081,0,0,1-.656,4.777,13.842,13.842,0,0,1-1.763,3.731,12.417,12.417,0,0,1-2.562,2.768,14.761,14.761,0,0,1-3.034,1.865,14.908,14.908,0,0,1-3.177,1.046A15.118,15.118,0,0,1-29.4,48H-40.549ZM-37.1,44.8h6.56a15.686,15.686,0,0,0,4.633-.656,9.9,9.9,0,0,0,3.69-2.029,9.542,9.542,0,0,0,2.46-3.506,13.122,13.122,0,0,0,.9-5.125,13.122,13.122,0,0,0-.9-5.125,9.542,9.542,0,0,0-2.46-3.505,9.9,9.9,0,0,0-3.69-2.03,15.686,15.686,0,0,0-4.633-.656H-37.1Zm44.034-.287a9.736,9.736,0,0,1-3.772,3.1,11.955,11.955,0,0,1-4.756.882,9.915,9.915,0,0,1-4.059-.8A9.146,9.146,0,0,1-8.713,45.54a9.44,9.44,0,0,1-1.927-3.2,11.343,11.343,0,0,1-.677-3.936,10.994,10.994,0,0,1,.738-4.079,9.452,9.452,0,0,1,2.05-3.2,9.214,9.214,0,0,1,3.116-2.071,10.3,10.3,0,0,1,3.936-.738A9.8,9.8,0,0,1,2.214,29,8,8,0,0,1,5.1,30.965,8.837,8.837,0,0,1,6.97,34.121a12.751,12.751,0,0,1,.656,4.243V39.39h-15.5a6.735,6.735,0,0,0,.595,2.358,6.847,6.847,0,0,0,1.332,1.968,6.156,6.156,0,0,0,1.927,1.333A5.889,5.889,0,0,0-1.6,45.54,7.647,7.647,0,0,0,1.927,44.8,8.014,8.014,0,0,0,4.51,42.629ZM4.182,36.684a5.512,5.512,0,0,0-1.6-3.936A5.743,5.743,0,0,0-1.6,31.272a6.191,6.191,0,0,0-4.3,1.476,6.2,6.2,0,0,0-1.968,3.936Zm9.635,6.273a8.089,8.089,0,0,0,2.07,1.886,5.336,5.336,0,0,0,2.85.7,7.067,7.067,0,0,0,1.5-.164,4.494,4.494,0,0,0,1.373-.533,3.04,3.04,0,0,0,.984-.922,2.347,2.347,0,0,0,.369-1.333,2.15,2.15,0,0,0-.349-1.271,3.049,3.049,0,0,0-.922-.84,5.192,5.192,0,0,0-1.312-.554q-.738-.205-1.517-.369-1.353-.287-2.583-.656a8.418,8.418,0,0,1-2.152-.963A4.538,4.538,0,0,1,12.649,36.4a4.73,4.73,0,0,1-.554-2.419,4.834,4.834,0,0,1,.615-2.46,5.325,5.325,0,0,1,1.64-1.763,8.036,8.036,0,0,1,2.3-1.066,9.364,9.364,0,0,1,2.624-.369,8.794,8.794,0,0,1,3.793.82,5.909,5.909,0,0,1,2.726,2.665l-2.665,1.763A4.953,4.953,0,0,0,21.5,31.907a4.471,4.471,0,0,0-2.44-.635,5.642,5.642,0,0,0-1.332.164,4.161,4.161,0,0,0-1.21.492,2.876,2.876,0,0,0-.882.841,2.029,2.029,0,0,0-.348,1.168,1.5,1.5,0,0,0,.389,1.045,3.441,3.441,0,0,0,1.066.759,9.321,9.321,0,0,0,1.558.574q.882.246,1.824.41a18.41,18.41,0,0,1,2.419.636,6.992,6.992,0,0,1,2.009,1.045,4.643,4.643,0,0,1,1.353,1.64,5.373,5.373,0,0,1,.492,2.419,5.536,5.536,0,0,1-.656,2.788,5.431,5.431,0,0,1-1.743,1.866,7.645,7.645,0,0,1-2.46,1.046,12.049,12.049,0,0,1-2.809.328,10.8,10.8,0,0,1-4.243-.758,7.7,7.7,0,0,1-3.219-2.809ZM31.57,28.812h3.2V48h-3.2Zm-.738-7.5a2.278,2.278,0,0,1,.677-1.64,2.326,2.326,0,0,1,3.321,0,2.356,2.356,0,1,1-4,1.64ZM60.27,47.139q0,5.248-2.686,7.974T49.815,57.84a14.98,14.98,0,0,1-5.1-.82,12.058,12.058,0,0,1-4.326-2.829l2.3-2.624a11.143,11.143,0,0,0,3.219,2.48,9.847,9.847,0,0,0,7.462.2A5.609,5.609,0,0,0,55.6,52.53a6.56,6.56,0,0,0,1.148-2.48,12.67,12.67,0,0,0,.328-2.911v-2.46H56.99A6.946,6.946,0,0,1,54,47.385a8.832,8.832,0,0,1-3.772.861,11.27,11.27,0,0,1-4.141-.738,9.633,9.633,0,0,1-3.239-2.05,9.069,9.069,0,0,1-2.091-3.116,10.3,10.3,0,0,1-.738-3.936,11.506,11.506,0,0,1,.738-4.223,8.841,8.841,0,0,1,2.07-3.177,9.078,9.078,0,0,1,3.219-1.989,11.986,11.986,0,0,1,4.182-.7,8.785,8.785,0,0,1,1.968.226,8.2,8.2,0,0,1,1.906.7,6.822,6.822,0,0,1,1.66,1.189,6.474,6.474,0,0,1,1.23,1.66h.082v-3.28h3.2ZM43.46,38.406A6.81,6.81,0,0,0,47.6,44.761a6.528,6.528,0,0,0,2.624.533,7,7,0,0,0,2.911-.574,6.441,6.441,0,0,0,3.485-3.752,7.735,7.735,0,0,0,.451-2.644,7.945,7.945,0,0,0-.492-2.85,6.58,6.58,0,0,0-1.394-2.235,6.144,6.144,0,0,0-2.173-1.455,7.388,7.388,0,0,0-2.788-.513,6.763,6.763,0,0,0-2.768.554,6.315,6.315,0,0,0-2.132,1.517A6.988,6.988,0,0,0,43.952,35.6,7.825,7.825,0,0,0,43.46,38.406Zm22.714-5.043q0-1.312-.082-2.46t-.082-2.091h3.034q0,.779.041,1.558t.041,1.6h.082a5.535,5.535,0,0,1,.923-1.353,6.648,6.648,0,0,1,1.414-1.169,7.561,7.561,0,0,1,1.845-.82A7.672,7.672,0,0,1,75.6,28.32a8.423,8.423,0,0,1,3.26.574,6.119,6.119,0,0,1,2.275,1.6,6.476,6.476,0,0,1,1.332,2.48,11.165,11.165,0,0,1,.431,3.178V48H79.7V36.479a6.135,6.135,0,0,0-1.066-3.813,3.914,3.914,0,0,0-3.321-1.394,6.234,6.234,0,0,0-2.686.533,4.762,4.762,0,0,0-1.845,1.517,6.8,6.8,0,0,0-1.066,2.337,12,12,0,0,0-.348,2.993V48h-3.2ZM105.9,44.515a9.736,9.736,0,0,1-3.772,3.1,11.955,11.955,0,0,1-4.756.882,9.915,9.915,0,0,1-4.059-.8,9.146,9.146,0,0,1-3.054-2.153,9.439,9.439,0,0,1-1.927-3.2,11.343,11.343,0,0,1-.676-3.936,10.994,10.994,0,0,1,.738-4.079,9.452,9.452,0,0,1,2.05-3.2,9.214,9.214,0,0,1,3.116-2.071A10.3,10.3,0,0,1,97.5,28.32a9.8,9.8,0,0,1,3.69.677,8,8,0,0,1,2.891,1.968,8.837,8.837,0,0,1,1.865,3.157,12.75,12.75,0,0,1,.656,4.243V39.39H91.1a6.735,6.735,0,0,0,.594,2.358,6.847,6.847,0,0,0,1.333,1.968,6.156,6.156,0,0,0,1.927,1.333,5.889,5.889,0,0,0,2.419.492A7.647,7.647,0,0,0,100.9,44.8a8.014,8.014,0,0,0,2.583-2.173Zm-2.747-7.831a5.512,5.512,0,0,0-1.6-3.936,5.743,5.743,0,0,0-4.182-1.476A5.909,5.909,0,0,0,91.1,36.684Zm8.4-3.321q0-1.312-.082-2.46t-.082-2.091h3.034q0,.779.041,1.558t.041,1.6h.082a5.535,5.535,0,0,1,.923-1.353,6.648,6.648,0,0,1,1.414-1.169,7.561,7.561,0,0,1,1.845-.82,7.672,7.672,0,0,1,2.214-.308,5.284,5.284,0,0,1,.656.041,2.883,2.883,0,0,1,.656.164l-.205,3.239a5.961,5.961,0,0,0-1.722-.246,4.859,4.859,0,0,0-4.285,1.906,9,9,0,0,0-1.332,5.228V48h-3.2ZM126.4,42.957a8.089,8.089,0,0,0,2.07,1.886,5.336,5.336,0,0,0,2.85.7,7.067,7.067,0,0,0,1.5-.164,4.494,4.494,0,0,0,1.373-.533,3.04,3.04,0,0,0,.984-.922,2.347,2.347,0,0,0,.369-1.333,2.15,2.15,0,0,0-.349-1.271,3.049,3.049,0,0,0-.923-.84,5.192,5.192,0,0,0-1.312-.554q-.738-.205-1.517-.369-1.353-.287-2.583-.656a8.418,8.418,0,0,1-2.153-.963,4.539,4.539,0,0,1-1.476-1.538,4.73,4.73,0,0,1-.553-2.419,4.834,4.834,0,0,1,.615-2.46,5.325,5.325,0,0,1,1.64-1.763,8.036,8.036,0,0,1,2.3-1.066,9.364,9.364,0,0,1,2.624-.369,8.794,8.794,0,0,1,3.792.82,5.909,5.909,0,0,1,2.727,2.665l-2.665,1.763a4.953,4.953,0,0,0-1.619-1.661,4.471,4.471,0,0,0-2.439-.635,5.642,5.642,0,0,0-1.333.164,4.161,4.161,0,0,0-1.21.492,2.876,2.876,0,0,0-.882.841,2.029,2.029,0,0,0-.348,1.168,1.5,1.5,0,0,0,.389,1.045,3.441,3.441,0,0,0,1.066.759,9.322,9.322,0,0,0,1.558.574q.881.246,1.824.41a18.41,18.41,0,0,1,2.419.636,6.992,6.992,0,0,1,2.009,1.045,4.643,4.643,0,0,1,1.353,1.64,5.373,5.373,0,0,1,.492,2.419,5.536,5.536,0,0,1-.656,2.788,5.431,5.431,0,0,1-1.742,1.866,7.645,7.645,0,0,1-2.46,1.046,12.049,12.049,0,0,1-2.809.328,10.8,10.8,0,0,1-4.243-.758,7.7,7.7,0,0,1-3.218-2.809Z" transform="translate(1462 705)" fill="#3a3a3a"/>
    </g>
  </g>
</svg>
